<?xml version="1.0" encoding="iso-8859-1"?>
<!-- Generator: Adobe Illustrator 17.1.0, SVG Export Plug-In . SVG Version: 6.00 Build 0)  -->
<!DOCTYPE svg PUBLIC "-//W3C//DTD SVG 1.1//EN" "http://www.w3.org/Graphics/SVG/1.1/DTD/svg11.dtd">
<svg version="1.1" id="Capa_1" xmlns="http://www.w3.org/2000/svg" xmlns:xlink="http://www.w3.org/1999/xlink" x="0px" y="0px"
	 viewBox="0 0 512 512" style="enable-background:new 0 0 512 512;" xml:space="preserve">
<path d="M464,200c-13.234,0-24,10.766-24,24h-16.195c-1.899-40.302-18.06-76.936-43.544-104.948l12.253-12.252
	c1.136,3.035,4.054,5.2,7.486,5.2h32c4.418,0,8-3.582,8-8V88c0-13.234-10.766-24-24-24c-12.205,0-22.303,9.159-23.801,20.963
	c-0.666,0.36-1.293,0.818-1.856,1.38l-21.396,21.396C340.936,82.254,304.302,66.094,264,64.195V48h8c4.418,0,8-3.582,8-8V24
	c0-13.234-10.766-24-24-24s-24,10.766-24,24v16c0,4.418,3.582,8,8,8h8v16.195c-41.306,1.946-78.753,18.881-107.019,45.473
	L120,88.687V88c0-13.234-10.766-24-24-24S72,74.766,72,88v16c0,4.418,3.582,8,8,8h32c2.384,0,4.518-1.048,5.984-2.703l11.873,11.873
	C105.464,148.9,90.047,184.703,88.195,224H72c0-13.234-10.766-24-24-24s-24,10.766-24,24v16c0,4.418,3.582,8,8,8h32
	c4.418,0,8-3.582,8-8h16.195c1.903,40.392,18.134,77.097,43.717,105.133c-0.558,0.333-1.088,0.73-1.568,1.21l-10.551,10.551
	C118.264,345.123,108.181,336,96,336c-13.234,0-24,10.766-24,24v16c0,4.418,3.582,8,8,8h32c0.263,0,0.527-0.014,0.789-0.04
	c0.12-0.012,0.236-0.034,0.354-0.051c0.14-0.02,0.28-0.036,0.419-0.064c0.137-0.027,0.27-0.065,0.404-0.099
	c0.118-0.03,0.237-0.056,0.354-0.091c0.133-0.04,0.261-0.09,0.391-0.137c0.116-0.042,0.233-0.08,0.348-0.127
	c0.122-0.051,0.239-0.11,0.358-0.166c0.117-0.055,0.236-0.108,0.351-0.169c0.117-0.063,0.228-0.133,0.341-0.201
	c0.11-0.066,0.222-0.128,0.33-0.2c0.128-0.086,0.249-0.18,0.371-0.273c0.086-0.065,0.174-0.124,0.258-0.193
	c0.206-0.169,0.404-0.347,0.592-0.535l23.996-23.996c0.48-0.48,0.878-1.01,1.21-1.568c16.495,15.052,35.995,26.859,57.477,34.424
	L185.339,472H184c-13.233,0-24,10.767-24,24v8c0,4.418,3.582,8,8,8h176c4.418,0,8-3.582,8-8v-8c0-13.233-10.767-24-24-24h-1.338
	l-15.006-81.488c20.493-7.217,39.176-18.297,55.173-32.369l23.514,23.514c1.562,1.562,3.609,2.343,5.657,2.343
	c0.673,0,1.345-0.093,2.001-0.262c0.64,0.165,1.307,0.262,1.999,0.262h32c4.418,0,8-3.582,8-8v-16c0-13.234-10.766-24-24-24
	s-24,10.766-24,24v0.687l-13.668-13.667c26.592-28.267,43.526-65.713,45.473-107.019H440c0,4.418,3.582,8,8,8h32
	c4.418,0,8-3.582,8-8v-16C488,210.766,477.234,200,464,200z M408,88c0-4.411,3.589-8,8-8s8,3.589,8,8v8h-16V88z M248,24
	c0-4.411,3.589-8,8-8s8,3.589,8,8v8h-16V24z M40,232v-8c0-4.411,3.589-8,8-8s8,3.589,8,8v8H40z M88,360c0-4.411,3.589-8,8-8
	s8,3.589,8,8v8H88V360z M408,360c0-4.411,3.589-8,8-8s8,3.589,8,8v8h-16V360z M88,96v-8c0-4.411,3.589-8,8-8s8,3.589,8,8v3.998
	c0,0.001,0,0.003,0,0.005V96H88z M336,496H176c0-4.411,3.589-8,8-8h144C332.411,488,336,491.589,336,496z M310.393,472H201.608
	l14.158-76.882c10.402,2.566,21.179,4.166,32.235,4.687v17.571c-9.311,3.302-16,12.195-16,22.624v16c0,4.418,3.582,8,8,8h32
	c4.418,0,8-3.582,8-8v-16c0-10.429-6.689-19.322-16-22.624v-17.571c11.056-0.521,21.834-2.121,32.236-4.687L310.393,472z
	 M240.813,216.628c2.605-0.379,4.858-2.015,6.023-4.376L256,193.685l9.163,18.566c1.165,2.361,3.418,3.998,6.023,4.376l20.489,2.977
	l-14.826,14.452c-1.886,1.838-2.746,4.486-2.301,7.081l3.5,20.406l-18.326-9.635c-1.165-0.613-2.444-0.919-3.723-0.919
	s-2.558,0.306-3.723,0.919l-18.326,9.635l3.5-20.406c0.445-2.595-0.415-5.243-2.301-7.081l-14.826-14.452L240.813,216.628z
	 M237.364,277.826L248,272.235V360c0,4.418,3.582,8,8,8s8-3.582,8-8v-87.765l10.636,5.592l18.697,101.529
	C281.384,382.384,268.878,384,256,384c-12.877,0-25.383-1.616-37.332-4.645L237.364,277.826z M256,432c4.411,0,8,3.589,8,8v8h-16v-8
	C248,435.589,251.589,432,256,432z M308.72,374.567l-16.779-91.118c0.498-0.223,0.983-0.479,1.435-0.808
	c0.378-0.275,0.717-0.587,1.035-0.916l46.442,46.442c1.562,1.562,3.609,2.343,5.657,2.343s4.095-0.781,5.657-2.343
	c3.125-3.124,3.125-8.189,0-11.313l-58.417-58.417l-2.72-15.857l2.926-2.852c0.654,0.173,1.337,0.274,2.045,0.274h88
	c4.418,0,8-3.582,8-8s-3.582-8-8-8h-73.911l4.363-4.252c2.181-2.125,2.965-5.305,2.024-8.201s-3.444-5.007-6.458-5.445
	l-14.674-2.132l56.823-56.823c3.125-3.124,3.125-8.189,0-11.313c-3.124-3.124-8.189-3.124-11.313,0l-62.226,62.226
	c-0.656,0.656-1.165,1.399-1.546,2.19L264,173.742V104c0-4.418-3.582-8-8-8s-8,3.582-8,8v69.742l-13.082,26.507
	c-0.38-0.79-0.89-1.534-1.546-2.19l-62.226-62.226c-3.124-3.124-8.189-3.124-11.313,0c-3.125,3.124-3.125,8.189,0,11.313
	l56.823,56.823l-14.674,2.132c-3.014,0.438-5.517,2.549-6.458,5.445s-0.156,6.075,2.024,8.201l4.363,4.252H128c-4.418,0-8,3.582-8,8
	s3.582,8,8,8h88c0.708,0,1.391-0.101,2.045-0.274l2.926,2.852l-2.72,15.857l-58.417,58.417c-3.125,3.124-3.125,8.189,0,11.313
	c1.562,1.562,3.609,2.343,5.657,2.343s4.095-0.781,5.657-2.343l46.442-46.442c0.318,0.329,0.657,0.641,1.035,0.916
	c0.452,0.329,0.938,0.586,1.435,0.81l-16.779,91.117C145.376,353.086,104,297.286,104,232c0-83.813,68.187-152,152-152
	s152,68.187,152,152C408,297.286,366.624,353.086,308.72,374.567z M472,232h-16v-8c0-4.411,3.589-8,8-8s8,3.589,8,8V232z"/>
<g>
</g>
<g>
</g>
<g>
</g>
<g>
</g>
<g>
</g>
<g>
</g>
<g>
</g>
<g>
</g>
<g>
</g>
<g>
</g>
<g>
</g>
<g>
</g>
<g>
</g>
<g>
</g>
<g>
</g>
</svg>
